<svg width="111" height="91" viewBox="0 0 111 91" xmlns="http://www.w3.org/2000/svg" xmlns:xlink="http://www.w3.org/1999/xlink"><title>Group</title><desc>Created using Figma</desc><g transform="translate(-2281 4917)"><use xlink:href="#a" transform="translate(2343.97 -4866.72)" fill="#B9A2DC"/><use xlink:href="#b" transform="translate(2244.85 -4895.31)" fill="#B9A2DC"/><use xlink:href="#c" transform="translate(2229 -4936)" fill="#B9A2DC"/><use xlink:href="#d" transform="translate(2229 -4849.82)" fill="#B9A2DC"/><use xlink:href="#e" transform="translate(2371.69 -4901.39)" fill="#B9A2DC"/><use xlink:href="#f" transform="translate(2251.45 -4883.95)" fill="#B9A2DC"/><use xlink:href="#g" transform="translate(2251.45 -4872.06)" fill="#B9A2DC"/><use xlink:href="#g" transform="translate(2251.45 -4839.02)" fill="#B9A2DC"/><use xlink:href="#h" transform="translate(2349.95 -4909.33)" fill="#B9A2DC"/><use xlink:href="#i" transform="translate(2345.94 -4915.28)" fill="#B9A2DC"/><use xlink:href="#j" transform="translate(2371.47 -4856.08)" fill="#B9A2DC"/><use xlink:href="#k" transform="translate(2327.68 -4876.61)" fill="#D3C5E9"/><use xlink:href="#l" transform="translate(2360.48 -4890.91)" fill="#B9A2DC"/></g><defs><path id="a" d="M.88 0l.342-.365-.819-.767L.381-.01l.5.01zM0 43.124l-.5-.01-.023 1.149.856-.766L0 43.124zm9.773-8.736l.46-.195-.271-.645-.522.467.333.373zm5.62 13.332l-.46.194.194.46.46-.194-.194-.46zm9.51-4.009l.193.461.461-.194-.194-.46-.46.193zM19.281 30.38l-.034-.499-.699.048.272.645.461-.194zm13.075-.896l.034.5 1.146-.08-.838-.784-.342.364zM.38-.01L-.5 43.114l.999.02L1.38.01l-1-.02zM.333 43.497l9.773-8.737-.666-.745-9.773 8.736.666.746zm8.98-8.915l5.62 13.332.921-.389-5.62-13.332-.922.389zm6.274 13.599l9.51-4.009-.389-.921-9.509 4.008.389.922zm9.776-4.664l-5.62-13.332-.922.388 5.62 13.333.922-.389zm-6.047-12.639l13.075-.896-.069-.997-13.074.895.068.998zm13.383-1.76L1.222-.364.54.365l31.476 29.483.684-.73z"/><path id="b" d="M130.748 30.702h-.5v.003l.5-.003zm-4.946 4.463H4.96v1h120.842v-1zm-120.842 0A4.455 4.455 0 0 1 .5 30.702h-1a5.455 5.455 0 0 0 5.46 5.463v-1zM.5 30.702V4.962h-1v25.74h1zm0-25.74A4.455 4.455 0 0 1 4.96.5v-1A5.455 5.455 0 0 0-.5 4.963h1zM4.96.5h120.828v-1H4.96v1zm120.828 0a4.456 4.456 0 0 1 4.46 4.463h1a5.456 5.456 0 0 0-5.46-5.463v1zm4.46 4.463v25.74h1V4.962h-1zm0 25.742a4.443 4.443 0 0 1-4.446 4.46v1a5.443 5.443 0 0 0 5.446-5.465l-1 .005z"/><path id="c" d="M108.575 24.653h-.375.375zm-4.96 4.588H4.96v.75h98.655v-.75zm-98.655 0a4.58 4.58 0 0 1-4.585-4.588h-.75A5.33 5.33 0 0 0 4.96 29.99v-.75zM.375 24.653V4.963h-.75v19.69h.75zm0-19.69A4.58 4.58 0 0 1 4.96.375v-.75A5.33 5.33 0 0 0-.375 4.963h.75zM4.96.375h98.655v-.75H4.96v.75zm98.655 0a4.58 4.58 0 0 1 4.585 4.588h.75a5.33 5.33 0 0 0-5.335-5.338v.75zm4.585 4.588v19.69h.75V4.963h-.75zm0 19.69a4.58 4.58 0 0 1-4.585 4.588v.75a5.33 5.33 0 0 0 5.335-5.338h-.75z"/><path id="d" d="M108.575 24.653h-.375.375zm-4.96 4.588H4.96v.75h98.655v-.75zm-98.655 0a4.58 4.58 0 0 1-4.585-4.588h-.75A5.33 5.33 0 0 0 4.96 29.99v-.75zM.375 24.653V4.963h-.75v19.69h.75zm0-19.69A4.58 4.58 0 0 1 4.96.375v-.75A5.33 5.33 0 0 0-.375 4.963h.75zM4.96.375h98.655v-.75H4.96v.75zm98.655 0a4.58 4.58 0 0 1 4.585 4.588h.75a5.33 5.33 0 0 0-5.335-5.338v.75zm4.585 4.588v19.69h.75V4.963h-.75zm0 19.69a4.59 4.59 0 0 1-4.585 4.588v.75a5.34 5.34 0 0 0 5.335-5.338h-.75z"/><path id="e" d="M0 .375a9.598 9.598 0 0 1 9.603 9.61h.75A10.347 10.347 0 0 0 0-.376v.75z"/><path id="f" d="M0 .375h76.614v-.75H0v.75z"/><path id="g" d="M0 .375h63.407v-.75H0v.75z"/><path id="h" d="M38.179 15.795l-.375-.02-.006.125.069.103.312-.208zm.25-4.816l.374.02v-.02h-.375zm-.705-1.218l.18-.33-.01-.005-.17.335zm-4.3-2.188l-.334.17.055.109.11.055.17-.334zM31.238 3.27l.334-.17-.005-.01-.33.18zm-1.218-.705l.02.374h.01l.012-.002-.042-.372zm-4.813.25l-.205.314.102.066.122-.006-.02-.375zM21.17.186l.205-.314-.012-.008-.012-.007-.18.33zm-1.409 0l-.184-.326-.01.006-.01.006.204.314zm-4.035 2.628l-.02.375.122.006.103-.066-.205-.315zm-4.754-.25l-.043.373.011.002h.012l.02-.374zm-1.218.706l-.33-.18-.005.01.335.17zM7.568 7.573l.17.334.11-.055.055-.11-.335-.17zm-4.3 2.188l-.17-.335-.01.006.18.329zm-.704 1.218H2.19V11l.375-.02zm.25 4.816l.314.205.067-.102-.007-.122-.374.02zM.187 19.833l-.314-.204-.008.011-.007.013.33.18zm0 1.41l-.326.184.005.01.007.01.314-.204zm2.627 4.038l.374.019.007-.122-.067-.102-.314.204zm-.25 4.816l-.374-.02v.02h.374zm.705 1.218l-.18.33.01.004.17-.334zm4.3 2.188l.334-.17-.056-.109-.109-.055-.17.334zm2.186 4.302l-.335.17.006.01.329-.18zm1.218.705l-.02-.375-.011.001-.012.001.043.373zm4.813-.25l.205-.314-.103-.067-.122.007.02.374zm4.035 2.629l.214-.309-.01-.006-.204.315zm1.409 0l-.205-.315-.009.006.214.309zm4.035-2.629l.02-.374-.122-.007-.102.067.204.314zm4.813.25l.043-.373-.011-.001h-.012l-.02.374zm1.219-.705l.328.18.006-.01-.334-.17zm2.186-4.302l-.17-.334-.109.055-.055.11.334.169zm4.3-2.188l.17.335.01-.006-.18-.329zm.704-1.219h.375v-.019l-.375.02zm-.25-4.816l-.314-.204-.066.102.006.122.374-.02zm2.627-4.037l.314.204.008-.012.007-.012-.329-.18zm0-1.41l.326-.185-.006-.011-.008-.012-.312.208zm-2.31-4.018l.249-4.816-.75-.04-.249 4.817.75.039zm.25-4.836a1.73 1.73 0 0 0-.9-1.547l-.36.657c.326.18.51.503.51.89h.75zm-.91-1.553l-4.3-2.187-.34.668 4.3 2.188.34-.669zm-4.135-2.023L31.572 3.1l-.668.34 2.186 4.302.669-.34zM31.567 3.09c-.303-.551-.887-.977-1.59-.897l.085.745c.325-.037.65.154.847.513l.658-.36zM30 2.191l-4.813.25.04.749 4.812-.25L30 2.191zm-4.589.31L21.376-.127l-.41.628 4.036 2.629.41-.629zm-4.06-2.643a1.793 1.793 0 0 0-1.773.003l.37.652a1.044 1.044 0 0 1 1.043.003l.36-.658zm-1.793.015l-4.035 2.628.409.629L19.967.5l-.41-.628zm-3.811 2.568l-4.755-.25-.039.75 4.755.249.039-.749zm-4.732-.248c-.703-.08-1.287.346-1.59.897l.659.36c.196-.358.522-.549.846-.512l.085-.745zm-1.595.908L7.234 7.403l.669.34 2.186-4.302-.669-.34zM7.398 7.239l-4.3 2.187.34.669 4.3-2.188-.34-.668zm-4.31 2.193c-.583.32-.899.906-.899 1.547h.75a.98.98 0 0 1 .51-.89l-.36-.657zm-.898 1.567l.25 4.816.748-.04-.25-4.815-.748.039zm.31 4.592l-2.627 4.038.628.409L3.128 16l-.629-.41zm-2.642 4.062a1.796 1.796 0 0 0 .003 1.774l.652-.37a1.046 1.046 0 0 1 .003-1.044l-.658-.36zm.015 1.794l2.626 4.038.63-.409L.5 21.038l-.628.41zm2.566 3.814l-.25 4.816.75.039.25-4.816-.75-.039zm-.25 4.835c0 .642.316 1.228.9 1.548l.36-.658c-.327-.179-.51-.503-.51-.89h-.75zm.91 1.553l4.3 2.188.34-.668-4.3-2.188-.34.668zm4.135 2.024l2.186 4.302.669-.34-2.186-4.302-.67.34zm2.192 4.312c.302.552.886.978 1.59.897l-.086-.745c-.324.037-.65-.154-.846-.512l-.658.36zm1.566.9l4.813-.25-.039-.75-4.813.25.04.75zm4.59-.31l4.035 2.628.409-.629-4.035-2.628-.41.629zm4.026 2.622c.273.19.62.257.918.257v-.75c-.202 0-.383-.049-.491-.124l-.427.617zm.918.257c.297 0 .644-.068.918-.257l-.428-.617c-.108.075-.289.124-.49.124v.75zm.909-.251l4.035-2.629-.41-.628-4.035 2.628.41.629zm3.811-2.568l4.813.25.039-.75-4.813-.25-.039.75zm4.79.247c.703.08 1.287-.345 1.59-.897l-.658-.36c-.197.358-.523.55-.847.512l-.085.745zm1.595-.907l2.186-4.302-.668-.34-2.187 4.302.669.34zm2.022-4.138l4.3-2.188-.34-.668-4.3 2.188.34.668zm4.31-2.193c.583-.32.899-.906.899-1.547h-.75a.98.98 0 0 1-.51.89l.36.657zm.898-1.567l-.25-4.816-.748.039.25 4.816.748-.039zm-.31-4.592l2.627-4.038-.628-.409-2.627 4.038.629.409zm2.642-4.062a1.796 1.796 0 0 0-.003-1.775l-.652.37c.183.324.186.7-.003 1.044l.658.36zm-.017-1.798l-2.685-4.037-.624.415 2.685 4.038.624-.416z"/><path id="i" d="M5.26 2.82a2.443 2.443 0 0 1-2.443 2.443v.75A3.193 3.193 0 0 0 6.01 2.82h-.75zM2.817 5.262A2.443 2.443 0 0 1 .375 2.82h-.75a3.193 3.193 0 0 0 3.192 3.194v-.75zM.375 2.82A2.443 2.443 0 0 1 2.817.375v-.75A3.193 3.193 0 0 0-.375 2.819h.75zM2.817.375A2.443 2.443 0 0 1 5.26 2.819h.75A3.193 3.193 0 0 0 2.817-.375v.75z"/><path id="j" d="M8.283 4.331a3.955 3.955 0 0 1-3.954 3.957v.75a4.705 4.705 0 0 0 4.704-4.707h-.75zM4.329 8.288A3.955 3.955 0 0 1 .375 4.331h-.75c0 2.6 2.106 4.707 4.704 4.707v-.75zM.375 4.331A3.955 3.955 0 0 1 4.329.375v-.75A4.705 4.705 0 0 0-.375 4.331h.75zM4.329.375a3.955 3.955 0 0 1 3.954 3.956h.75A4.705 4.705 0 0 0 4.329-.375v.75z"/><path id="k" d="M9.905 3.524h.375v-.375h-.375v.375zm0 2.892v.375h.375v-.375h-.375zm-3.507 0v-.375h-.375v.375h.375zm0 3.51v.375h.375v-.375h-.375zm-2.89 0h-.376v.375h.375v-.375zm0-3.51h.374v-.375h-.375v.375zM0 6.416h-.375v.375H0v-.375zm0-2.892v-.375h-.375v.375H0zm3.507 0v.375h.375v-.375h-.375zm0-3.524v-.375h-.375V0h.375zm2.891 0h.375v-.375h-.375V0zm0 3.524h-.375v.375h.375v-.375zm3.132 0v2.892h.75V3.524h-.75zm.375 2.517H6.398v.75h3.507v-.75zm-3.882.375v3.51h.75v-3.51h-.75zm.375 3.135h-2.89v.75h2.89v-.75zm-2.516.375v-3.51h-.75v3.51h.75zM3.507 6.04H0v.75h3.507v-.75zm-3.132.375V3.524h-.75v2.892h.75zM0 3.9h3.507v-.75H0v.75zm3.882-.375V0h-.75v3.524h.75zM3.507.375h2.891v-.75h-2.89v.75zM6.023 0v3.524h.75V0h-.75zm.375 3.899h3.507v-.75H6.398v.75z"/><path id="l" d="M13.368 13.001C6.194 13.001.375 7.18.375 0h-.75c0 7.592 6.155 13.751 13.743 13.751v-.75z"/></defs></svg>