<svg width="96" height="96" viewBox="0 0 96 96" fill="none" xmlns="http://www.w3.org/2000/svg">
<path d="M89.0253 74.0668C89.9753 74.49 90.7014 75.2056 91.6049 74.9893L91.6567 74.8637C91.168 74.0119 89.9309 74.014 88.9884 73.538C88.5535 73.3216 88.144 73.0429 87.7028 72.8593C87.3281 72.7031 86.9196 72.6387 86.5544 72.4645C86.0889 72.2418 85.6245 72.0022 85.2213 71.902C84.1637 71.6296 83.2771 70.761 82.2174 70.6734C82.1488 70.5942 82.1351 70.4939 81.9704 70.4507C81.8195 70.3968 81.734 70.4844 81.5926 70.4475C81.0743 69.9926 80.4336 69.8638 79.89 69.6506C79.5766 69.5292 79.5502 69.4279 79.3032 69.3297C78.9929 69.2073 78.6382 69.2221 78.3163 69.0574C78.1327 68.6869 77.5162 68.7175 77.2123 68.4505C76.9125 68.5138 76.6286 68.2362 76.3826 68.1022C76.1504 67.9755 75.5129 67.8816 75.2564 67.7591C75.0211 67.6473 74.735 67.4372 74.6622 67.6673C74.5661 67.9671 76.0491 68.4188 76.2539 68.6204C76.3911 68.689 76.4354 68.5772 76.58 68.6605C77.0233 68.9962 77.3875 69.0585 77.9374 69.3572C78.0588 69.3931 78.1168 69.2991 78.2424 69.3466C79.2694 69.9197 80.3091 70.4739 81.5071 70.762C81.5799 70.9552 81.8406 71.1072 82.0876 71.0934C82.4317 71.3879 82.8897 71.485 83.2908 71.6581C84.3083 72.0993 85.3237 72.53 86.3898 72.9659C86.7623 73.1179 87.0885 73.3701 87.4664 73.5253C88.0427 73.7607 88.5947 73.8726 89.0253 74.0668Z" fill="#F3A270"/>
<path d="M82.4654 81.795C82.8422 81.8593 83.0512 82.4388 83.4354 82.1148C83.4576 81.6894 82.9509 81.6905 82.7441 81.3875C82.5298 81.3432 82.3736 81.6208 82.4654 81.795Z" fill="#F3A270"/>
<path d="M80.9445 80.8272C81.1819 80.8208 81.2864 81.166 81.5355 81.1438C81.7709 81.1259 81.887 80.8746 81.7561 80.6129C81.4944 80.4155 81.1936 80.3195 80.9476 80.2044C80.7756 80.1242 80.5634 79.9511 80.3998 79.8287C79.8109 79.3896 79.0657 78.7732 78.5052 78.4407C78.1358 78.2201 77.7906 77.8686 77.4592 77.6828C77.0244 77.4348 76.5283 76.9018 76.0607 77.1055C76.2243 77.5952 76.7858 77.8771 77.1669 78.1768C77.3083 78.2887 77.5416 78.3183 77.6904 78.4555C78.026 78.7668 78.6097 79.1637 78.9274 79.4128C79.0667 79.5215 79.2778 79.5331 79.4425 79.6355C80.0198 79.9923 80.3661 80.3807 80.7798 80.5211C80.7534 80.6372 80.8695 80.729 80.9445 80.8272Z" fill="#F3A270"/>
<path d="M87.8558 63.4917C88.2295 63.5877 88.6432 63.7144 88.9884 63.6046C88.9483 63.2151 87.6648 62.8795 87.8558 63.4917Z" fill="#F3A270"/>
<path d="M86.129 62.939C85.6741 62.5812 85.1136 62.4641 84.5563 62.3796C83.999 62.2962 83.4439 62.2445 82.9932 62.0492C82.7166 62.1537 82.0865 61.8023 81.9852 62.1274C82.0886 62.4546 82.7251 62.3564 82.9341 62.5717C83.2507 62.4809 83.5885 62.5949 83.8523 62.7659C84.5226 62.7944 85.463 63.2631 86.129 62.939Z" fill="#F3A270"/>
<path d="M74.5893 76.2051C74.7245 76.2631 74.9704 76.5587 75.0833 76.3866L75.1203 76.3307C74.9482 75.9475 74.4279 75.7607 74.1112 75.5169C73.8294 75.2995 73.2647 74.7073 72.9766 74.967C73.004 75.3512 73.5972 75.5517 73.9613 75.8072C74.108 75.9106 74.2062 76.0657 74.3392 76.1512C74.4173 76.2008 74.4827 76.1586 74.5893 76.2051Z" fill="#F3A270"/>
<path d="M81.0722 61.9052C80.8104 61.5094 80.4378 61.6435 79.9132 61.5042C79.4868 61.3923 79.2525 61.3258 78.8451 61.2593C78.6572 61.3353 78.6266 61.5147 78.7723 61.6593C79.1934 61.7058 79.623 61.8472 80.0209 61.9401C80.4199 62.033 80.7882 62.0752 81.0722 61.9052Z" fill="#F3A270"/>
<path d="M88.3065 54.4166C88.5999 54.4409 88.7762 54.4947 88.9736 54.3427C90.7363 54.5771 92.4704 54.3385 94.0948 54.4114C94.7155 54.4409 95.3023 54.5686 95.8934 54.4219C95.962 54.3364 95.9968 54.2277 96 54.1211H77.3241C77.3199 54.1549 77.3178 54.1897 77.321 54.2288C77.6482 54.4821 78.3427 54.1295 78.7237 54.386C78.8947 54.3987 78.9274 54.2995 79.0784 54.2963C79.947 54.4515 80.9223 54.3026 81.9335 54.31C82.2121 54.3121 82.4697 54.4261 82.7515 54.4156C83.4217 54.3892 84.3759 54.4852 84.9437 54.3237C85.1443 54.5285 85.4187 54.3702 85.6467 54.3639C85.71 54.3617 85.8219 54.4356 85.8789 54.4388C86.5671 54.4768 87.612 54.3607 88.3065 54.4166Z" fill="#F3A270"/>
<path d="M79.6409 92.2655C78.9348 91.5256 78.2297 90.6496 77.4529 90.1366C76.7225 89.1655 75.6765 88.0562 74.7867 87.33C74.602 86.8741 74.1788 86.6704 73.8072 86.2661C73.2024 85.6096 72.5206 84.8211 71.9812 84.4401C71.3268 83.639 70.6186 82.8189 69.9135 82.3587C69.827 81.9977 69.5008 81.9101 69.2602 81.6842C69.1768 81.6061 69.0364 81.4193 68.9298 81.2969C68.6132 80.9285 68.2226 80.3733 67.8722 80.2519C67.6199 79.8213 67.0753 79.3885 66.7017 79.0444C66.6521 79.0613 66.6046 79.0867 66.5571 79.1236L79.4963 92.5896C79.5903 92.5041 79.6504 92.3858 79.6409 92.2655Z" fill="#F3A270"/>
<path d="M60.7033 6.841C61.1012 5.87629 61.7926 5.12689 61.554 4.23605L61.4284 4.1875C60.5978 4.6973 60.6284 5.93645 60.1798 6.89167C59.9761 7.33181 59.7101 7.74873 59.5381 8.1952C59.3924 8.57412 59.3386 8.98471 59.175 9.35413C58.966 9.82593 58.7391 10.2956 58.6493 10.702C58.4055 11.768 57.5643 12.6747 57.5052 13.7397C57.4281 13.8104 57.3289 13.8262 57.2899 13.992C57.2403 14.1439 57.33 14.2284 57.2973 14.3709C56.8571 14.8997 56.7463 15.5446 56.5489 16.0945C56.436 16.4111 56.3357 16.4396 56.2439 16.6898C56.1299 17.0043 56.1552 17.359 56.0001 17.6851C55.6338 17.8751 55.6834 18.4947 55.4238 18.8039C55.4966 19.1037 55.2264 19.394 55.0987 19.642C54.9783 19.8774 54.9034 20.5202 54.7883 20.7798C54.6839 21.0184 54.4801 21.3086 54.7145 21.3793C55.0195 21.4712 55.429 19.9713 55.6264 19.7602C55.6918 19.6209 55.5747 19.585 55.6549 19.4362C55.9811 18.9781 56.0307 18.6161 56.3146 18.0556C56.3473 17.9342 56.2491 17.8825 56.2935 17.7548C56.8381 16.7098 57.3648 15.6522 57.615 14.4511C57.8071 14.3709 57.9527 14.1017 57.9295 13.86C58.2166 13.5033 58.2989 13.0452 58.4604 12.6399C58.872 11.6108 59.2731 10.5838 59.6795 9.50612C59.8209 9.13036 60.0647 8.79261 60.2083 8.41052C60.4268 7.82789 60.5218 7.27798 60.7033 6.841Z" fill="#F3A270"/>
<path d="M68.6037 13.1171C68.6533 12.7413 69.2254 12.506 68.8855 12.1408C68.4633 12.1313 68.4802 12.64 68.1857 12.8564C68.1488 13.0738 68.4306 13.2205 68.6037 13.1171Z" fill="#F3A270"/>
<path d="M67.6949 14.6705C67.6769 14.4373 68.0221 14.3138 67.9883 14.0699C67.9567 13.843 67.7055 13.7311 67.449 13.8715C67.2611 14.1396 67.1756 14.4446 67.07 14.6948C66.9962 14.87 66.8304 15.0874 66.7143 15.2563C66.2974 15.8611 65.7085 16.6263 65.3971 17.1995C65.1902 17.5773 64.8525 17.9341 64.6783 18.2719C64.4461 18.7162 63.9331 19.2292 64.1506 19.6947C64.6403 19.5047 64.9 18.9347 65.186 18.5431C65.2926 18.3975 65.3116 18.1663 65.4435 18.0122C65.7433 17.6639 66.118 17.0665 66.3555 16.7382C66.4589 16.5947 66.461 16.3867 66.556 16.2189C66.8906 15.63 67.2685 15.2669 67.3909 14.851C67.5112 14.869 67.5988 14.7497 67.6949 14.6705Z" fill="#F3A270"/>
<path d="M50.2096 8.26063C50.2993 7.88593 50.4197 7.47007 50.3057 7.12598C49.9194 7.17031 49.6027 8.45801 50.2096 8.26063Z" fill="#F3A270"/>
<path d="M49.684 9.99414C49.3336 10.4533 49.2238 11.0148 49.1478 11.5732C49.0729 12.1315 49.0296 12.6878 48.8407 13.1416C48.9504 13.4182 48.6074 14.0514 48.9357 14.1496C49.2629 14.043 49.1531 13.4097 49.3673 13.1923C49.2702 12.8799 49.379 12.541 49.5468 12.2708C49.5637 11.6027 50.0165 10.657 49.684 9.99414Z" fill="#F3A270"/>
<path d="M63.3083 21.1968C63.3611 21.0595 63.6482 20.8031 63.4698 20.6975L63.4128 20.6616C63.037 20.8453 62.8692 21.373 62.637 21.6981C62.4301 21.9884 61.8591 22.571 62.1282 22.8549C62.5188 22.8043 62.6929 22.209 62.9346 21.8364C63.0328 21.6854 63.1859 21.5799 63.2661 21.4437C63.3125 21.3656 63.2661 21.3034 63.3083 21.1968Z" fill="#F3A270"/>
<path d="M48.7277 15.0669C48.333 15.3318 48.4744 15.7034 48.3425 16.23C48.2369 16.6586 48.1736 16.8929 48.1124 17.3014C48.1926 17.4892 48.3741 17.5199 48.5187 17.371C48.5926 16.5309 49.075 15.6347 48.7277 15.0669Z" fill="#F3A270"/>
<path d="M41.1588 7.88146C41.182 7.58804 41.2358 7.41177 41.0849 7.21439C41.3171 5.45172 41.0786 3.71755 41.1503 2.09315C41.1788 1.47252 41.3044 0.885668 41.1598 0.294593C41.0754 0.225986 40.9677 0.191155 40.8622 0.187988V18.8628C40.897 18.867 40.9329 18.8691 40.972 18.866C41.2295 18.5388 40.8706 17.8442 41.1313 17.4622C41.144 17.2912 41.0437 17.2584 41.0395 17.1075C41.1957 16.2388 41.0448 15.2636 41.0522 14.2524C41.0543 13.9738 41.1693 13.7162 41.1588 13.4333C41.1324 12.7631 41.2274 11.8089 41.0659 11.2411C41.2707 11.0405 41.1113 10.7661 41.106 10.5381C41.1039 10.4748 41.1778 10.3619 41.181 10.3049C41.219 9.61986 41.1028 8.57598 41.1588 7.88146Z" fill="#F3A270"/>
<path d="M79.1596 15.5243C78.4482 16.26 77.5996 17.0009 77.1215 17.7936C76.1768 18.5651 75.1108 19.6555 74.4226 20.5706C73.9719 20.7764 73.7872 21.2049 73.3977 21.5934C72.7655 22.2245 72.0034 22.938 71.6477 23.489C70.8719 24.1772 70.0793 24.9192 69.6507 25.6369C69.2887 25.7435 69.219 26.0676 69.0037 26.3167C68.9298 26.4032 68.7472 26.5521 68.629 26.6629C68.2723 26.9954 67.7297 27.4102 67.6284 27.7606C67.2051 28.034 66.7967 28.5923 66.4684 28.9786C66.4885 29.0261 66.518 29.0715 66.5581 29.1148L79.4974 15.6488C79.4035 15.5612 79.281 15.5084 79.1596 15.5243Z" fill="#F3A270"/>
<path d="M89.1119 34.3838C90.0745 33.9817 91.0846 33.9479 91.5585 33.1373C91.5416 33.0951 91.5237 33.0539 91.5036 33.0128C90.5473 32.7858 89.7008 33.6862 88.7076 34.0461C88.2516 34.2139 87.7682 34.3216 87.3313 34.5158C86.9608 34.6815 86.6336 34.9348 86.2568 35.0805C85.7755 35.2673 85.2825 35.4404 84.9332 35.6641C84.0096 36.2468 82.7684 36.2964 81.9789 37.0078C81.8733 37.0036 81.791 36.9455 81.6464 37.0352C81.5039 37.1081 81.5092 37.2294 81.3857 37.3075C80.6975 37.373 80.1655 37.7509 79.6378 37.9999C79.3338 38.1445 79.242 38.0949 79.0013 38.2068C78.6984 38.3483 78.4683 38.6164 78.1274 38.7377C77.7305 38.6174 77.3315 39.0871 76.9283 39.1262C76.77 39.3869 76.3731 39.4037 76.1061 39.4903C75.8549 39.5726 75.3493 39.9716 75.0844 40.074C74.8416 40.169 74.4923 40.2323 74.6094 40.4434C74.7456 40.7252 76.1029 39.9516 76.3879 39.9421C76.5325 39.8893 76.4797 39.7806 76.6412 39.732C77.1901 39.6391 77.4846 39.4175 78.0799 39.2212C78.1896 39.1578 78.1601 39.0512 78.2825 38.9921C79.4013 38.6385 80.5181 38.2628 81.5514 37.5862C81.7382 37.6664 82.0316 37.5799 82.1889 37.3909C82.6396 37.3424 83.0249 37.0753 83.4259 36.9022C84.4445 36.4642 85.4546 36.0209 86.5027 35.5438C86.8689 35.3771 87.2764 35.3127 87.649 35.1438C88.2158 34.8894 88.6738 34.5643 89.1119 34.3838Z" fill="#F3A270"/>
<path d="M90.2307 44.4755C90.5389 44.2454 91.0972 44.4955 91.1342 43.99C90.8397 43.6807 90.4924 44.0491 90.1304 43.99C90.0396 44.0533 90.0206 44.1599 90.0439 44.2591C90.066 44.3583 90.1346 44.4491 90.2307 44.4755Z" fill="#F3A270"/>
<path d="M88.4828 44.9126C88.6411 44.7353 88.9641 44.8978 89.1192 44.7015C89.191 44.6097 89.2058 44.4988 89.1678 44.4007C89.1245 44.3025 89.0295 44.217 88.8891 44.1748C88.5662 44.2286 88.2896 44.3806 88.0374 44.4809C87.8611 44.5506 87.5888 44.5843 87.3872 44.6202C86.6631 44.7458 85.7026 44.8619 85.0757 45.0393C84.6619 45.1554 84.169 45.1649 83.8059 45.2767C83.3256 45.4224 82.6026 45.414 82.4221 45.8931C82.8887 46.1106 83.4808 45.8984 83.96 45.8277C84.1384 45.8024 84.321 45.6535 84.5226 45.6398C84.9785 45.6103 85.6688 45.4604 86.0689 45.4013C86.2441 45.376 86.3971 45.2303 86.585 45.1807C87.2415 45.0076 87.7619 45.0245 88.1482 44.8197C88.2126 44.92 88.3593 44.8989 88.4828 44.9126Z" fill="#F3A270"/>
<path d="M80.631 27.9805C80.955 27.7768 81.335 27.5615 81.4933 27.2364C81.183 26.9989 80.0579 27.6976 80.631 27.9805Z" fill="#F3A270"/>
<path d="M79.0425 28.8521C78.4693 28.9365 77.9986 29.2616 77.5532 29.6078C77.1088 29.954 76.6898 30.3223 76.237 30.5144C76.123 30.7878 75.4337 31.0021 75.6005 31.2997C75.9066 31.4528 76.2729 30.9229 76.5737 30.9198C76.7288 30.6253 77.0413 30.4606 77.3463 30.3867C77.8287 29.9202 78.8134 29.5613 79.0425 28.8521Z" fill="#F3A270"/>
<path d="M80.7555 46.3406C80.8917 46.2825 81.2717 46.3079 81.2295 46.1063C81.2263 46.0841 81.221 46.063 81.2157 46.0408C80.8189 45.9025 80.326 46.1506 79.9301 46.2129C79.5766 46.2688 78.7628 46.2699 78.7469 46.6572C79.0435 46.9 79.5987 46.6087 80.0336 46.5211C80.2098 46.4862 80.3903 46.5211 80.5434 46.4831C80.6342 46.463 80.6479 46.387 80.7555 46.3406Z" fill="#F3A270"/>
<path d="M74.8121 31.8095C74.3434 31.7261 74.1851 32.0892 73.7228 32.3731C73.3481 32.6054 73.1381 32.7288 72.8087 32.979C72.7338 33.169 72.8478 33.3125 73.0473 33.3104C73.688 32.7626 74.6569 32.4607 74.8121 31.8095Z" fill="#F3A270"/>
<path d="M74.3888 21.3929C74.6094 21.1976 74.772 21.1058 74.7952 20.8631C76.1905 19.7474 77.2133 18.3394 78.3933 17.2153C78.8451 16.7867 79.3465 16.449 79.6462 15.9255C79.6304 15.8189 79.5734 15.7218 79.4963 15.6489L66.5571 29.1149C66.5803 29.1402 66.6056 29.1645 66.6373 29.1877C67.0574 29.1191 67.2706 28.3845 67.7287 28.281C67.8574 28.166 67.8047 28.0763 67.906 27.9655C68.6258 27.4409 69.1874 26.6398 69.8935 25.9167C70.0887 25.7173 70.3526 25.6064 70.5394 25.3974C70.9838 24.8971 71.7174 24.2723 71.9897 23.7551C72.282 23.7467 72.3528 23.4427 72.5069 23.2748C72.5501 23.2274 72.6821 23.1957 72.7232 23.1577C73.2288 22.688 73.8663 21.8563 74.3888 21.3929Z" fill="#F3A270"/>
<path d="M95.8533 53.789C94.8295 53.7858 93.7064 53.6876 92.805 53.8924C91.5933 53.7457 90.0681 53.732 88.9324 53.8713C88.4701 53.6887 88.0342 53.8523 87.4843 53.8407C86.5914 53.8227 85.5475 53.7679 84.9047 53.8924C83.8703 53.809 82.7853 53.7531 81.9725 53.941C81.6432 53.7552 81.3625 53.9283 81.0342 53.9452C80.9202 53.9515 80.6869 53.9241 80.5244 53.9156C80.0378 53.8892 79.3612 53.7869 79.0393 53.9547C78.5475 53.8396 77.8635 53.9315 77.3579 53.9621C77.3389 54.0085 77.3263 54.0613 77.3231 54.1193H95.9979C95.9979 53.9916 95.9493 53.866 95.8533 53.789Z" fill="#F3A270"/>
<path d="M38.07 61.9705C38.07 58.7754 35.4804 56.6664 32.2854 56.6664C30.5487 56.6664 29.1415 55.2592 29.1415 53.5226C29.1415 51.7859 30.5487 50.3787 32.2854 50.3787C34.022 50.3787 35.4292 51.7859 35.4292 53.5226C35.4292 55.2592 34.022 56.6664 32.2854 56.6664C29.0903 56.6664 26.5008 58.7754 26.5008 61.9705C26.5008 64.6885 28.4527 67.7551 33.8139 67.7551C39.9732 67.7551 44.9656 62.7627 44.9656 56.6034C44.9656 49.7601 39.4177 44.2122 32.5744 44.2122C24.971 44.2122 18.807 50.3763 18.807 57.9797C18.807 66.4288 25.4778 73.096 33.9269 73.096C43.2205 73.096 50.5765 65.5247 50.5765 56.2311C50.5765 43.2357 36.4605 35.2992 24.9175 37.871C18.5727 39.2853 11.5498 44.217 5.81277 44.217C3.1554 44.217 1 42.0628 1 39.4042C1 36.7457 3.1554 34.5915 5.81277 34.5915C13.7884 34.5915 12.9855 54.561 12.9855 56.2501C12.9855 57.938 13.4363 77.9087 5.81277 77.9087C3.1554 77.9087 1 75.7545 1 73.096C1 70.4374 3.1554 68.2832 5.81277 68.2832C9.20644 68.2832 16.2032 71.2927 23.8053 75.8794C30.6617 80.0166 34.7072 83.8956 38.0688 86.8991C39.9684 88.5965 39.9387 91.5001 38.0949 93.345C36.2155 95.2245 33.168 95.2245 31.2885 93.345C29.4389 91.4954 29.4234 88.6025 31.3171 86.911C35.1485 83.4876 38.6647 80.1557 44.9168 76.2898C52.764 71.4378 60.4245 68.2832 63.5707 68.2832C66.2293 68.2832 68.3835 70.4386 68.3835 73.096C68.3835 75.7545 66.2281 77.9087 63.5707 77.9087C55.7259 77.9087 56.398 57.938 56.398 56.2501C56.398 54.5622 55.9602 34.5915 63.5707 34.5915C66.2293 34.5915 68.3835 36.7469 68.3835 39.4042C68.3835 42.0628 66.2281 44.217 63.5707 44.217C60.4245 44.217 52.9389 42.3435 44.165 36.9836C40.3443 34.6498 29.8802 27.3711 29.8802 22.5584C29.8802 19.8998 32.0356 17.7456 34.6929 17.7456C37.3515 17.7456 39.5057 19.901 39.5057 22.5584C39.5057 27.3711 32.804 30.4425 23.188 29.8727C16.1032 29.4528 11.9471 25.613 10.6267 24.483" stroke="#F3A270" stroke-miterlimit="10" stroke-linecap="round" stroke-linejoin="round"/>
</svg>
